Coordinates
version=1
nRows=14
nColumns=24
inDegrees=yes

Units are S.I. units (second, meters, Newtons, ...)
Angles are in degrees.

endheader
time	pelvis_tilt	pelvis_list	pelvis_rotation	pelvis_tx	pelvis_ty	pelvis_tz	hip_flexion_r	hip_adduction_r	hip_rotation_r	knee_angle_r	ankle_angle_r	subtalar_angle_r	mtp_angle_r	hip_flexion_l	hip_adduction_l	hip_rotation_l	knee_angle_l	ankle_angle_l	subtalar_angle_l	mtp_angle_l	lumbar_extension	lumbar_bending	lumbar_rotation
      7.25000000	     63.33504946	    -15.04699690	      2.80841981	      0.54164714	      0.95276267	     -0.23371871	      2.55588938	     -9.20753479	    -15.88013702	    -59.77228415	    -16.86580188	      0.00000000	      0.00000000	      8.78088431	    -10.96331325	      6.15548477	    -65.28649097	    -25.10181627	      0.00000000	      0.00000000	      0.00000000	      0.00000000	      0.00000000
      7.26000000	     63.37821861	    -15.01819528	      2.78953402	      0.54155478	      0.95277997	     -0.23356642	      2.51367493	     -9.21768054	    -15.84027023	    -59.87433684	    -16.86210739	      0.00000000	      0.00000000	      8.72769487	    -10.96941856	      6.13651012	    -65.46672931	    -25.10872494	      0.00000000	      0.00000000	      0.00000000	      0.00000000	      0.00000000
      7.27000000	     63.41892784	    -14.99524009	      2.77226845	      0.54145753	      0.95278195	     -0.23342053	      2.46626929	     -9.22879733	    -15.81001316	    -59.97391965	    -16.86009267	      0.00000000	      0.00000000	      8.68181834	    -10.98425318	      6.12756926	    -65.63995888	    -25.11263372	      0.00000000	      0.00000000	      0.00000000	      0.00000000	      0.00000000
      7.28000000	     63.45696936	    -14.97809587	      2.75466262	      0.54136552	      0.95277481	     -0.23328107	      2.41997544	     -9.24061926	    -15.79261212	    -60.07247643	    -16.86255693	      0.00000000	      0.00000000	      8.64403122	    -11.00510321	      6.12991503	    -65.80629186	    -25.11321984	      0.00000000	      0.00000000	      0.00000000	      0.00000000	      0.00000000
      7.29000000	     63.49221100	    -14.96546329	      2.73632532	      0.54129933	      0.95278155	     -0.23316175	      2.38118605	     -9.25307466	    -15.78894520	    -60.17049406	    -16.87192865	      0.00000000	      0.00000000	      8.61454298	    -11.02886432	      6.14467008	    -65.96469228	    -25.11124568	      0.00000000	      0.00000000	      0.00000000	      0.00000000	      0.00000000
      7.30000000	     63.52255123	    -14.95579628	      2.71922563	      0.54126581	      0.95279814	     -0.23307895	      2.35278257	     -9.26733155	    -15.79576686	    -60.26680027	    -16.88904159	      0.00000000	      0.00000000	      8.59336156	    -11.05280249	      6.17257003	    -66.11249950	    -25.10824314	      0.00000000	      0.00000000	      0.00000000	      0.00000000	      0.00000000
      7.31000000	     63.54489665	    -14.94811340	      2.70653102	      0.54125500	      0.95280391	     -0.23303279	      2.33311254	     -9.28549412	    -15.80706209	    -60.35823967	    -16.91250884	      0.00000000	      0.00000000	      8.58044095	    -11.07416737	      6.21349890	    -66.24564322	    -25.10604406	      0.00000000	      0.00000000	      0.00000000	      0.00000000	      0.00000000
      7.32000000	     63.55820698	    -14.94136569	      2.70011739	      0.54125809	      0.95281079	     -0.23301276	      2.31751875	     -9.30923660	    -15.81768304	    -60.44010307	    -16.93905443	      0.00000000	      0.00000000	      8.57521198	    -11.09032850	      6.26649265	    -66.35928648	    -25.10634521	      0.00000000	      0.00000000	      0.00000000	      0.00000000	      0.00000000
      7.33000000	     63.56463854	    -14.93405368	      2.69983302	      0.54127530	      0.95284471	     -0.23301234	      2.30000499	     -9.33944382	    -15.82568814	    -60.50724039	    -16.96446460	      0.00000000	      0.00000000	      8.57513737	    -11.10039960	      6.33015362	    -66.44849791	    -25.11035626	      0.00000000	      0.00000000	      0.00000000	      0.00000000	      0.00000000
      7.34000000	     63.56882673	    -14.92530462	      2.70534380	      0.54130823	      0.95289599	     -0.23303238	      2.27426188	     -9.37616443	    -15.83199175	    -60.55551515	    -16.98468064	      0.00000000	      0.00000000	      8.57451106	    -11.10635348	      6.40281107	    -66.50895039	    -25.11850786	      0.00000000	      0.00000000	      0.00000000	      0.00000000	      0.00000000
      7.35000000	     63.57730474	    -14.91612042	      2.71825971	      0.54134886	      0.95293284	     -0.23307987	      2.23435517	     -9.41755888	    -15.83861018	    -60.58325582	    -16.99678744	      0.00000000	      0.00000000	      8.56497327	    -11.11228550	      6.48248451	    -66.53787938	    -25.13018277	      0.00000000	      0.00000000	      0.00000000	      0.00000000	      0.00000000
      7.36000000	     63.59791250	    -14.90941759	      2.74228366	      0.54137626	      0.95295194	     -0.23316352	      2.17499056	     -9.45895672	    -15.84710903	    -60.59216001	    -16.99973232	      0.00000000	      0.00000000	      8.53767975	    -11.12284271	      6.56718492	    -66.53519514	    -25.14352080	      0.00000000	      0.00000000	      0.00000000	      0.00000000	      0.00000000
      7.37000000	     63.63792293	    -14.90857996	      2.78112628	      0.54137151	      0.95298061	     -0.23328729	      2.09148329	     -9.49341196	    -15.85813678	    -60.58705905	    -16.99458289	      0.00000000	      0.00000000	      8.48588501	    -11.14209601	      6.65557492	    -66.50413006	    -25.15549642	      0.00000000	      0.00000000	      0.00000000	      0.00000000	      0.00000000
      7.38000000	     63.70123297	    -14.91571439	      2.83604818	      0.54134508	      0.95303335	     -0.23343817	      1.98042952	     -9.51407610	    -15.87160322	    -60.57414182	    -16.98416206	      0.00000000	      0.00000000	      8.40703143	    -11.17292216	      6.74753816	    -66.45076590	    -25.16247459	      0.00000000	      0.00000000	      0.00000000	      0.00000000	      0.00000000
